<?xml version="1.0" standalone="no"?>
<!DOCTYPE svg PUBLIC "-//W3C//DTD SVG 20010904//EN"
 "http://www.w3.org/TR/2001/REC-SVG-20010904/DTD/svg10.dtd">
<svg version="1.0" xmlns="http://www.w3.org/2000/svg"
 width="829.000000pt" height="829.000000pt" viewBox="0 0 829.000000 829.000000"
 preserveAspectRatio="xMidYMid meet">
<metadata>
Created by potrace 1.11, written by Peter Selinger 2001-2013
</metadata>
<g transform="translate(0.000000,829.000000) scale(0.100000,-0.100000)"
fill="#000000" stroke="none">
<path d="M2071 6219 l-2073 -2072 2074 -2073 2073 -2073 2072 2073 2072 2072
-2073 2073 -2073 2073 -2072 -2073z m3804 -346 l1726 -1727 -1729 -1729 -1728
-1728 -1700 1699 c-934 935 -1712 1714 -1729 1731 l-29 32 1724 1724 c949 949
1728 1725 1731 1725 4 0 784 -777 1734 -1727z"/>
<path d="M3309 6434 l-834 -834 330 -330 330 -330 45 7 c138 21 246 -12 327
-100 53 -57 73 -97 90 -175 11 -55 11 -73 -3 -132 -68 -302 -448 -373 -623
-115 -49 73 -66 169 -48 270 l8 40 -331 330 -330 330 -625 -625 -625 -625 892
-892 c491 -491 895 -893 898 -893 3 0 5 169 5 375 l0 375 -264 264 -264 264
-36 -10 c-20 -6 -68 -8 -108 -6 -264 17 -407 316 -256 536 86 126 243 178 390
130 75 -25 163 -99 198 -167 27 -54 45 -140 38 -185 -9 -62 -12 -79 -17 -84
-3 -2 134 -144 303 -314 l309 -309 0 -586 0 -586 438 -438 c241 -241 441 -436
444 -433 3 3 5 1003 5 2221 l0 2216 -35 25 c-55 41 -98 92 -128 152 -23 47
-27 67 -26 141 0 73 4 95 28 142 104 214 381 268 547 106 75 -73 104 -143 104
-249 0 -76 -4 -93 -32 -151 -33 -66 -72 -110 -130 -144 l-33 -19 0 -2226 0
-2225 444 444 444 444 -1 584 0 585 304 304 c262 262 304 308 302 331 -1 16
-3 55 -4 88 -11 261 259 432 497 315 161 -79 233 -283 156 -442 -48 -101 -117
-162 -215 -192 -49 -15 -141 -16 -190 -2 -25 8 -42 -7 -292 -256 l-265 -265 0
-379 0 -379 897 897 897 897 -636 634 -635 635 -332 -332 -333 -333 12 -57
c19 -91 -1 -180 -58 -261 -120 -170 -373 -192 -521 -44 -40 40 -86 121 -97
169 -11 50 -3 141 15 191 62 162 228 255 391 220 l52 -11 333 332 332 333
-822 822 -822 821 -834 -834z"/>
</g>
</svg>
