<?xml version="1.0" standalone="no"?>
<!DOCTYPE svg PUBLIC "-//W3C//DTD SVG 20010904//EN"
 "http://www.w3.org/TR/2001/REC-SVG-20010904/DTD/svg10.dtd">
<svg version="1.0" xmlns="http://www.w3.org/2000/svg"
 width="400.000000pt" height="400.000000pt" viewBox="0 0 400.000000 400.000000"
 preserveAspectRatio="xMidYMid meet">
<metadata>
Created by potrace 1.11, written by Peter Selinger 2001-2013
</metadata>
<g transform="translate(0.000000,400.000000) scale(0.100000,-0.100000)"
fill="#000000" stroke="none">
<path d="M2650 3547 c-14 -7 -33 -30 -43 -52 -17 -37 -24 -42 -95 -65 -42 -13
-81 -25 -87 -26 -22 -4 -75 -29 -75 -36 0 -14 51 -21 73 -10 12 6 33 13 47 16
l25 5 -25 -19 c-14 -11 -31 -20 -37 -20 -7 0 -13 -3 -13 -8 0 -4 -17 -16 -37
-27 -21 -11 -41 -24 -44 -28 -3 -5 -10 -9 -15 -9 -5 0 -31 -15 -59 -32 -27
-18 -72 -45 -100 -61 -27 -16 -52 -32 -55 -35 -3 -3 -19 -12 -35 -21 -44 -23
-79 -43 -85 -49 -10 -11 -90 -60 -96 -60 -4 0 -15 -6 -23 -14 -9 -8 -23 -16
-31 -18 -14 -3 -21 -8 -57 -38 -10 -8 -19 -14 -20 -12 -3 3 -28 -12 -110 -65
-29 -18 -53 -30 -53 -26 0 4 -6 -2 -14 -13 -8 -10 -18 -16 -22 -11 -9 8 27 37
38 31 5 -3 8 0 8 6 0 6 8 14 18 18 16 7 148 85 210 124 44 28 81 48 88 48 3
-1 14 9 25 21 10 12 19 19 19 16 0 -4 25 9 55 28 30 19 59 35 65 35 5 0 10 4
10 9 0 5 15 14 33 22 17 7 34 16 37 19 15 18 189 118 196 112 4 -4 4 -1 0 6
-4 7 -11 10 -16 7 -5 -3 -11 -1 -15 5 -4 6 -11 8 -16 5 -5 -4 -9 -2 -9 3 0 5
-11 7 -25 4 -14 -2 -25 0 -25 4 0 5 -12 9 -27 10 -68 2 -185 12 -189 17 -3 3
-19 1 -35 -3 -18 -5 -29 -5 -29 1 0 6 -5 7 -11 3 -6 -3 -37 -8 -68 -10 -49 -3
-73 -6 -156 -18 -48 -6 -141 -28 -157 -37 -10 -5 -22 -9 -27 -9 -5 0 -22 -5
-38 -12 -15 -6 -34 -12 -42 -14 -23 -4 -226 -107 -229 -116 -2 -4 -10 -8 -18
-8 -8 0 -14 -4 -14 -10 0 -5 -5 -10 -11 -10 -6 0 -25 -11 -43 -25 -18 -14 -38
-25 -45 -25 -7 0 -9 -4 -6 -10 3 -5 2 -10 -3 -10 -11 0 -76 -56 -146 -125 -28
-27 -55 -49 -59 -47 -5 1 -6 -2 -3 -7 3 -5 -11 -27 -31 -48 -21 -22 -47 -56
-58 -76 -11 -20 -23 -37 -27 -37 -5 0 -8 -4 -8 -9 0 -6 14 -11 32 -13 31 -3
48 -31 27 -44 -5 -3 -6 -11 -2 -17 4 -6 7 -60 8 -119 0 -60 2 -108 5 -109 11
-2 60 25 60 33 0 4 5 8 10 8 10 0 115 62 172 101 14 10 32 20 39 21 34 7 60
45 61 87 l0 41 54 -1 c30 -1 54 -6 54 -12 0 -5 6 -5 13 2 8 6 17 8 20 4 4 -3
7 -1 7 5 0 7 3 11 8 10 4 -2 28 12 54 30 26 17 50 32 53 32 4 0 27 13 51 30
25 16 44 24 44 17 0 -7 -19 -21 -42 -32 -23 -11 -46 -24 -52 -30 -6 -6 -22
-16 -36 -23 -14 -6 -63 -37 -110 -67 -47 -30 -92 -58 -100 -61 -8 -4 -27 -15
-41 -25 -14 -10 -29 -16 -33 -12 -3 3 -6 1 -6 -5 0 -7 -7 -12 -15 -12 -8 0
-15 -4 -15 -8 0 -4 -19 -18 -43 -30 -49 -25 -296 -176 -313 -191 -7 -5 -15 -7
-18 -4 -3 4 -6 1 -6 -6 0 -7 -4 -10 -9 -7 -5 4 -11 2 -13 -2 -3 -9 -99 -72
-128 -85 -8 -4 -58 -34 -110 -67 -52 -33 -114 -70 -137 -82 -24 -12 -43 -26
-43 -30 0 -5 -4 -6 -10 -3 -10 6 -6 68 7 88 4 6 8 17 8 22 0 6 15 56 33 112
18 56 35 110 37 120 2 10 12 43 23 73 11 30 20 58 20 63 3 24 27 94 36 105 5
7 18 11 28 9 10 -3 16 -2 13 3 -3 4 2 11 10 14 9 3 24 24 34 46 10 22 21 37
24 33 4 -3 7 -1 7 5 0 7 9 12 19 12 11 0 22 4 26 9 3 6 14 8 25 6 11 -2 20 0
20 6 0 5 10 9 23 9 13 0 28 5 35 12 7 7 12 8 12 4 0 -5 6 -4 13 1 6 6 25 13
41 17 34 8 78 40 69 50 -3 3 -1 6 5 6 7 0 12 4 12 10 0 5 -43 -6 -95 -25 -52
-19 -95 -32 -95 -29 0 2 -13 -2 -29 -11 -17 -8 -38 -16 -48 -18 -10 -1 -23 -6
-30 -10 -6 -4 -19 -4 -29 0 -13 5 -15 3 -9 -7 5 -8 -8 -1 -28 14 -20 16 -37
25 -37 21 0 -4 -8 -1 -17 6 -11 10 -14 10 -9 2 5 -9 1 -13 -13 -13 -27 0 -61
-46 -61 -82 0 -17 9 -42 19 -57 20 -27 19 -62 0 -87 -5 -6 -6 -14 -2 -17 3 -4
1 -13 -5 -20 -7 -8 -9 -17 -5 -20 3 -4 2 -7 -3 -7 -5 0 -10 -8 -11 -17 -1 -17
-46 -173 -60 -203 -3 -8 -7 -19 -8 -25 -7 -38 -18 -75 -24 -75 -3 0 -7 -10 -8
-23 0 -12 -7 -35 -14 -52 -7 -16 -11 -36 -10 -43 1 -7 -2 -12 -6 -11 -22 6
-61 -16 -76 -41 -21 -35 -21 -59 -1 -88 8 -12 12 -22 7 -22 -15 -1 59 -30 76
-30 10 0 18 -6 18 -12 0 -12 18 -53 74 -173 10 -22 20 -47 21 -55 2 -8 9 -21
16 -28 7 -8 10 -18 7 -23 -4 -5 -2 -9 3 -9 6 0 13 -12 17 -27 3 -16 14 -36 22
-45 9 -10 13 -18 10 -18 -3 0 6 -28 22 -62 15 -35 38 -85 51 -113 12 -27 28
-63 35 -80 7 -16 27 -61 44 -98 17 -38 31 -71 31 -73 0 -3 13 -33 29 -67 17
-34 31 -69 33 -77 2 -8 9 -21 16 -28 7 -8 10 -18 7 -23 -4 -5 -1 -9 5 -9 6 0
8 -4 5 -10 -3 -5 -1 -10 5 -10 6 0 8 -4 5 -10 -3 -5 -1 -10 6 -10 7 0 9 -3 6
-6 -3 -4 -2 -14 3 -24 7 -13 4 -22 -9 -35 -39 -34 -3 -127 54 -137 32 -6 81
16 95 42 11 20 17 21 78 16 107 -8 249 -18 290 -20 20 0 43 -5 50 -9 6 -5 12
-4 12 1 0 5 20 6 44 2 24 -3 51 -5 60 -4 9 1 14 -1 11 -6 -3 -4 -27 -6 -55 -4
-27 2 -50 0 -50 -5 0 -8 178 -94 223 -106 4 -2 8 -3 10 -5 1 -1 9 -3 17 -5 8
-3 49 -13 90 -25 143 -38 228 -48 400 -45 91 1 177 5 191 9 14 3 39 8 55 10
16 2 36 6 44 9 14 4 152 45 175 50 6 2 24 10 40 20 l30 16 -65 2 c-36 1 -77 2
-92 2 -16 0 -28 4 -28 8 0 8 48 6 215 -6 44 -3 114 -7 155 -10 41 -2 75 -5 75
-5 0 -1 38 -3 85 -6 158 -8 190 -10 196 -17 4 -3 15 -2 24 3 15 8 24 3 45 -23
15 -17 34 -36 41 -40 66 -38 145 20 130 94 -3 17 -13 37 -23 44 -12 9 -14 19
-8 41 10 34 10 34 18 54 18 45 69 207 70 222 1 10 4 18 8 18 4 0 10 17 14 38
4 20 11 43 17 50 6 6 7 12 3 12 -4 0 -1 7 6 17 8 9 13 17 11 17 -7 2 21 96 28
96 4 0 8 6 7 12 -1 42 5 58 21 59 9 0 12 3 5 5 -10 5 19 108 54 194 3 8 7 20
9 27 3 16 24 84 31 103 4 8 7 18 8 23 2 4 4 10 5 15 1 4 2 11 1 15 -1 4 4 18
11 30 7 12 13 27 13 32 1 6 4 17 7 25 11 29 56 165 87 266 30 93 34 101 63
110 45 13 72 54 64 96 -10 49 -29 68 -76 76 -37 6 -45 13 -69 57 -16 28 -54
94 -85 149 l-56 98 14 42 c8 22 10 42 6 44 -5 2 -7 9 -4 16 11 30 -70 72 -110
57 -16 -6 -52 25 -190 165 -94 94 -201 203 -238 242 -37 39 -69 67 -72 64 -3
-3 -6 -1 -6 5 0 5 -49 59 -108 119 l-109 109 3 48 c3 51 -10 71 -53 88 -32 12
-43 11 -73 -4z m74 -47 c16 -16 14 -58 -3 -66 -29 -13 -51 -14 -51 -3 0 5 -4
7 -10 4 -5 -3 -11 1 -11 9 -1 9 -2 22 -3 29 -4 36 50 55 78 27z m-51 -117 c20
-6 37 -7 37 -2 0 30 51 -11 211 -173 99 -101 234 -237 299 -304 66 -66 117
-124 113 -129 -5 -4 -3 -5 3 -2 6 3 33 -18 61 -47 38 -39 48 -57 42 -69 -9
-16 -9 -67 1 -67 3 0 11 -9 17 -20 10 -14 10 -27 2 -47 -6 -15 -11 -30 -11
-33 0 -3 -8 -21 -17 -40 -10 -19 -16 -41 -15 -47 1 -7 2 -17 3 -23 0 -5 8 -10
17 -10 8 0 13 4 9 9 -3 5 1 15 8 23 7 7 14 18 16 23 9 42 14 55 22 55 5 0 6 6
4 13 -7 18 17 43 42 43 12 0 19 -4 17 -8 -3 -4 0 -8 5 -8 6 0 11 -6 11 -14 0
-8 7 -21 15 -30 9 -8 16 -19 17 -23 0 -4 11 -25 24 -45 13 -20 25 -43 26 -50
2 -7 6 -15 9 -18 4 -3 20 -30 38 -61 21 -38 28 -58 21 -65 -16 -16 -21 -60
-10 -88 6 -18 6 -26 -1 -26 -6 0 -8 -4 -5 -8 2 -4 -15 -29 -38 -55 -24 -25
-42 -48 -40 -49 2 -2 -17 -25 -40 -51 -24 -26 -42 -47 -40 -47 2 0 -6 -12 -19
-26 -12 -14 -25 -42 -28 -62 l-6 -36 36 40 c20 22 52 59 71 83 19 23 41 49 48
56 6 8 12 17 12 21 0 3 8 14 18 23 10 9 26 27 35 41 20 28 22 14 5 -27 -13
-33 -12 -28 -22 -73 -5 -19 -11 -39 -15 -45 -4 -5 -18 -44 -31 -85 -12 -41
-27 -81 -33 -87 -5 -7 -7 -13 -3 -13 3 0 0 -16 -8 -35 -8 -19 -13 -35 -10 -35
2 0 -2 -16 -10 -35 -8 -19 -12 -35 -8 -35 3 0 1 -5 -6 -12 -7 -7 -12 -22 -12
-34 0 -13 -4 -25 -9 -28 -4 -3 -12 -20 -16 -38 -10 -41 -6 -30 -35 -113 -13
-38 -25 -72 -25 -75 -1 -3 -4 -12 -8 -20 -8 -20 -38 -118 -41 -133 -2 -7 -6
-19 -9 -27 -5 -13 -119 -357 -122 -370 -1 -3 -4 -12 -8 -20 -3 -8 -8 -28 -12
-44 -3 -15 -8 -26 -11 -23 -3 3 -21 -1 -39 -9 -27 -11 -36 -11 -47 -1 -7 6
-49 36 -93 66 -44 30 -81 58 -83 63 -6 13 -52 9 -52 -5 0 -12 38 -52 50 -53 8
-1 64 -38 84 -56 11 -10 28 -20 38 -24 10 -3 18 -10 18 -15 0 -5 7 -9 16 -9 8
0 13 -4 10 -8 -8 -13 -178 -3 -195 11 -11 9 -13 9 -8 0 5 -8 -8 -10 -50 -6
-32 3 -87 6 -123 7 -36 0 -68 6 -72 11 -13 17 -9 27 8 21 8 -3 12 -2 9 4 -3 6
-3 10 2 10 12 0 133 80 182 120 24 19 68 60 99 90 31 30 60 54 65 52 5 -1 6 2
3 7 -3 5 2 15 10 22 24 20 132 163 145 193 7 14 16 26 21 26 4 0 8 7 8 15 0 8
5 15 10 15 6 0 9 3 8 8 -1 4 16 45 39 92 42 87 73 171 93 250 23 88 41 200 34
211 -3 5 -1 9 3 9 5 0 9 26 9 58 1 31 2 75 2 97 3 79 -3 175 -10 175 -4 0 -6
16 -4 35 1 19 0 35 -4 35 -3 0 -6 10 -7 23 0 26 -34 153 -58 217 -9 25 -18 50
-19 55 -1 6 -17 40 -35 77 l-33 66 -59 4 c-33 2 -59 0 -59 -3 0 -3 -10 -5 -22
-5 l-23 1 -1 -320 c-1 -176 -2 -329 -3 -341 -1 -18 -8 -21 -55 -22 l-54 -1 0
332 c0 183 -1 338 -1 346 -1 7 -7 11 -16 8 -8 -4 -17 -2 -20 3 -5 9 -43 6 -53
-5 -3 -2 -11 0 -19 6 -7 6 -13 8 -13 3 0 -5 -25 -7 -55 -6 -40 3 -55 8 -55 19
0 9 5 11 13 7 9 -6 9 -4 1 7 -6 8 -11 29 -12 47 -2 29 1 33 20 32 85 -7 408 1
408 11 0 6 -12 26 -26 45 -15 19 -24 34 -21 34 3 0 -11 17 -31 38 -20 22 -57
61 -82 88 -49 52 -119 116 -164 149 -16 11 -33 25 -40 31 -6 5 -37 26 -68 44
-32 19 -58 38 -58 43 0 4 -4 5 -10 2 -5 -3 -10 -1 -10 6 0 7 -3 9 -6 6 -7 -7
-64 22 -76 38 -4 6 -8 6 -8 1 0 -4 -10 -1 -23 7 -13 8 -42 21 -65 28 -23 7
-42 16 -42 20 0 12 -38 2 -74 -21 -36 -22 -46 -24 -46 -12 0 5 18 16 40 26 22
10 40 22 40 28 0 5 5 8 12 6 6 -2 23 6 36 19 14 13 32 21 39 18 8 -2 11 -1 8
5 -3 5 10 16 30 26 19 9 38 21 41 26 4 6 9 6 13 1 3 -5 23 -14 44 -20z m-338
-168 c-16 -14 -35 -25 -42 -25 -6 0 -13 -4 -15 -8 -6 -14 -98 -63 -98 -52 0 6
8 13 18 17 9 3 25 13 35 21 9 8 17 11 17 6 0 -5 4 -4 8 2 10 15 85 64 97 64 5
-1 -3 -12 -20 -25z m-181 -110 c-10 -9 -39 -26 -64 -40 -49 -26 -148 -88 -167
-105 -10 -8 -13 -7 -13 2 0 11 175 123 214 137 6 2 17 10 25 18 7 8 16 11 19
8 3 -3 -3 -12 -14 -20z m-254 -157 c0 -4 -7 -8 -15 -8 -8 0 -15 -4 -15 -10 0
-5 -7 -10 -16 -10 -9 0 -22 -7 -29 -17 -9 -11 -14 -13 -19 -4 -5 7 6 17 28 26
20 9 36 19 36 23 0 5 7 9 15 9 8 0 15 -4 15 -9z m-125 -75 c-16 -9 -31 -14
-33 -12 -2 2 -8 -4 -13 -13 -6 -10 -16 -18 -24 -18 -7 0 -20 -6 -27 -12 -17
-16 -30 -24 -143 -90 -49 -28 -92 -54 -95 -57 -9 -11 -111 -71 -120 -71 -17 0
-20 -41 -20 -315 l0 -284 -25 5 c-25 4 -28 0 -28 -38 0 -13 -8 -18 -28 -18
-23 0 -28 -5 -31 -27 l-3 -28 -174 -1 c-95 -1 -169 1 -164 5 19 12 -5 51 -31
51 -19 0 -25 6 -28 28 -2 15 -10 28 -18 28 -8 1 -20 2 -25 3 -7 1 -10 42 -10
112 1 101 -1 110 -17 106 -22 -6 -23 6 -3 23 8 7 15 9 15 4 0 -4 10 1 23 12
12 10 31 24 42 30 48 26 70 39 75 44 3 3 22 14 43 25 20 11 37 23 37 27 0 5 4
8 10 8 5 0 50 25 101 55 50 30 95 55 100 55 5 0 9 4 9 8 0 5 18 17 40 28 22
10 40 22 40 27 0 4 9 7 21 7 11 0 17 5 14 10 -3 6 -1 10 5 10 11 0 130 68 140
81 3 3 37 23 75 44 39 21 78 45 88 53 9 8 17 12 17 8 0 -4 9 2 20 12 11 10 33
25 48 33 15 8 29 16 32 19 17 18 58 39 75 39 16 0 14 -3 -10 -16z m-1297 -147
c21 -47 -37 -88 -74 -52 -28 29 -6 76 35 76 20 0 31 -7 39 -24z m2080 -85 c2
-58 -6 -65 -65 -62 l-43 2 0 -46 c-1 -25 -1 -83 -1 -130 0 -47 0 -157 1 -244
l0 -159 35 2 c19 2 35 -1 35 -7 0 -5 6 -5 14 2 10 9 16 8 26 -4 7 -8 8 -15 3
-15 -5 0 -7 -20 -6 -44 l2 -43 -169 0 c-94 0 -169 2 -166 4 2 2 0 20 -4 39 -5
20 -4 34 1 34 6 0 9 8 7 18 -2 12 3 16 17 14 11 -2 27 -3 35 -2 8 0 23 1 32 1
9 0 18 6 20 12 4 10 3 502 -1 550 -1 14 -11 17 -54 17 l-54 0 -2 54 -1 54 168
2 169 1 1 -50z m1007 8 c0 -8 5 -17 10 -21 6 -5 5 -8 -3 -8 -7 0 -11 -4 -8 -8
9 -15 -29 -39 -50 -31 -28 10 -47 36 -38 51 5 7 9 18 9 23 1 6 6 9 13 8 7 -2
12 1 12 6 0 5 12 6 28 2 15 -4 27 -14 27 -22z m-1780 -131 c70 2 85 -1 86 -13
1 -8 2 -21 3 -27 0 -7 13 -14 29 -16 21 -3 27 -9 27 -26 0 -13 7 -29 15 -36
10 -8 15 -9 15 -2 0 6 6 9 13 6 11 -4 13 -57 13 -259 l0 -254 -50 1 c-63 2
-69 5 -56 27 5 10 6 21 3 25 -10 10 -11 66 -1 72 5 3 6 10 2 15 -9 15 -11 119
-2 119 4 0 3 11 -2 25 -7 18 -6 25 3 25 8 0 9 3 1 8 -6 4 -9 23 -7 42 5 50 5
53 0 73 -4 22 -25 37 -43 30 -8 -3 -14 6 -16 24 l-3 28 -112 1 -113 1 0 -29
c0 -24 -4 -28 -30 -28 l-30 0 0 -229 0 -229 -52 2 -53 1 -2 311 -2 311 55 0
c53 0 54 -1 54 -29 0 -24 4 -28 30 -28 26 0 30 4 30 28 0 27 2 29 46 29 25 1
48 4 52 8 4 3 8 3 9 -2 2 -4 41 -7 88 -5z m-1095 -298 c0 -9 -53 -41 -65 -40
-3 0 -13 -6 -21 -14 -8 -9 -22 -19 -30 -24 -16 -9 -22 -39 -29 -145 -2 -37 -7
-72 -10 -77 -3 -4 0 -10 6 -12 7 -2 7 -12 0 -31 -6 -15 -7 -27 -3 -27 4 0 7
-24 8 -53 1 -65 10 -138 24 -197 6 -25 13 -56 16 -70 7 -35 49 -158 67 -200 8
-19 16 -39 17 -45 1 -5 8 -18 17 -27 8 -9 12 -22 8 -27 -3 -6 -1 -11 5 -11 10
0 35 -48 32 -62 -1 -5 2 -8 6 -8 4 0 16 -15 26 -32 11 -18 32 -50 48 -70 17
-21 28 -38 25 -38 -8 0 66 -83 145 -161 42 -42 79 -74 82 -71 6 5 10 -14 7
-31 -1 -5 3 -5 9 -2 7 4 22 -3 35 -15 17 -16 39 -24 69 -25 24 -1 48 -4 52 -6
5 -3 33 -4 62 -4 28 0 52 -2 52 -6 0 -4 -42 -5 -92 -2 -51 3 -105 6 -120 6
-16 0 -24 5 -21 11 4 6 0 5 -9 -2 -9 -7 -18 -9 -21 -5 -3 4 -37 8 -76 8 -72
-1 -83 9 -22 20 51 9 62 17 48 36 -11 14 -19 14 -93 -3 l-82 -19 -38 26 c-21
14 -44 23 -51 21 -8 -3 -22 16 -39 52 -59 129 -82 179 -99 217 -9 22 -25 56
-34 75 -9 19 -16 37 -16 40 -1 3 -10 25 -22 50 -34 73 -92 204 -108 245 -5 11
-7 23 -7 28 1 4 -2 7 -8 7 -5 0 -10 5 -10 11 0 6 -11 33 -25 60 -13 27 -22 49
-20 49 3 0 -4 17 -14 38 -28 54 -81 172 -84 185 -1 6 -8 18 -15 25 -7 8 -10
18 -6 23 6 10 71 -24 90 -47 6 -8 13 -11 16 -9 3 3 11 -1 18 -10 7 -8 17 -15
22 -15 6 0 22 -8 36 -19 15 -10 37 -21 48 -25 18 -6 21 -3 17 16 -4 22 -28 39
-115 85 -16 8 -28 19 -28 24 0 5 -5 9 -11 9 -6 0 -23 9 -38 19 -36 26 -32 77
8 95 14 6 44 23 66 37 22 14 56 34 75 45 19 10 37 21 40 24 3 3 21 14 40 24
19 11 41 26 48 33 7 7 19 13 25 13 7 0 23 9 37 20 29 23 30 23 30 10z m3106
-22 c-10 17 9 15 24 -3 23 -28 20 -62 -7 -74 -25 -11 -62 -1 -64 19 -1 6 -2
16 -3 23 -1 6 4 20 12 29 12 15 18 16 30 5 13 -9 14 -9 8 1z m-3557 -198 c20
-10 21 -51 1 -76 -10 -12 -16 -12 -28 -2 -13 11 -14 11 -8 0 7 -11 4 -12 -13
-3 -11 7 -21 15 -22 19 0 4 -2 15 -4 25 -7 36 37 58 74 37z m951 -413 c0 -5 5
-5 12 -1 7 4 8 3 4 -4 -4 -7 -20 -12 -36 -12 -16 0 -32 -4 -35 -10 -3 -5 -3
-10 2 -10 7 0 9 -52 3 -70 -1 -3 -1 -25 0 -49 1 -37 -1 -43 -12 -34 -14 12
-18 80 -5 100 4 6 3 14 -2 17 -5 4 -8 18 -5 31 4 22 1 25 -26 25 -28 0 -38 9
-24 22 9 9 124 4 124 -5z m1262 -29 c2 -24 1 -71 0 -106 -3 -53 -6 -61 -18
-51 -7 6 -11 16 -8 21 4 6 -3 5 -15 -1 -11 -7 -21 -16 -21 -21 0 -6 -7 -10
-15 -10 -8 0 -15 3 -15 8 1 11 30 47 30 36 0 -5 5 -2 10 6 15 23 12 60 -5 66
-8 4 -12 10 -9 15 9 15 -7 10 -33 -11 -14 -11 -23 -20 -19 -20 4 0 2 -10 -5
-21 -7 -14 -7 -19 0 -15 11 7 36 -32 27 -41 -12 -12 -46 31 -46 58 0 30 37 82
52 73 4 -3 8 0 8 5 0 7 7 7 20 -1 11 -7 18 -19 15 -27 -4 -11 -3 -12 10 -1 8
7 15 28 15 46 0 49 18 42 22 -8z m118 13 c0 -6 -5 -13 -12 -17 -6 -4 -8 -3 -4
4 3 5 0 13 -6 15 -8 3 -6 6 5 6 9 1 17 -3 17 -8z m-1028 -21 c12 -11 16 -32
16 -80 0 -75 -4 -86 -24 -69 -9 7 -19 8 -26 2 -35 -25 -94 9 -94 54 0 12 2 20
4 18 2 -2 12 5 23 16 21 21 59 25 77 7 9 -9 12 -6 12 15 0 27 -12 33 -62 28
-18 -2 -24 10 -12 22 11 11 69 2 86 -13z m1387 6 c11 -8 13 -8 7 2 -11 18 8
15 32 -7 17 -14 22 -30 22 -70 0 -29 -5 -51 -11 -51 -5 0 -7 -4 -4 -10 3 -5
-1 -10 -9 -10 -9 0 -16 -4 -16 -8 0 -5 -15 -8 -34 -8 -19 1 -32 4 -29 8 2 5
-3 8 -11 8 -9 0 -16 8 -16 17 0 13 3 14 12 5 19 -19 75 -15 84 6 4 9 6 23 5
31 -2 8 2 10 11 5 8 -4 10 -3 5 2 -5 5 -13 10 -18 10 -5 1 -12 2 -15 3 -3 0 2
8 11 17 19 20 16 24 -28 34 -27 6 -38 4 -50 -10 -13 -16 -13 -19 8 -30 13 -7
28 -10 33 -6 5 3 15 -1 22 -9 11 -13 7 -15 -24 -15 -21 0 -44 6 -52 14 -41 42
19 108 65 72z m-1577 -18 c4 -7 8 -8 8 -3 0 6 5 3 10 -6 5 -8 8 -24 6 -35 -2
-15 -12 -20 -52 -22 -27 -1 -56 -5 -64 -8 -13 -4 -13 -6 0 -14 8 -6 11 -10 5
-10 -5 0 -3 -5 5 -10 17 -11 63 -13 74 -3 13 13 35 11 29 -3 -3 -8 -12 -14
-20 -14 -8 0 -12 -4 -9 -8 6 -11 -40 -9 -50 1 -4 4 -12 7 -18 7 -6 0 -4 -5 4
-10 8 -5 10 -10 4 -10 -43 0 -63 103 -28 146 19 23 82 24 96 2z m369 -7 c21
-18 27 -57 7 -45 -10 6 -10 4 -2 -7 13 -17 12 -42 -1 -49 -5 -3 -11 15 -13 40
-3 41 -7 48 -29 53 -4 1 -8 -27 -9 -63 -2 -77 -2 -79 -12 -63 -5 7 -7 40 -7
73 1 33 -1 60 -5 60 -19 0 -34 -36 -35 -81 0 -27 -4 -49 -10 -49 -5 0 -10 31
-10 72 1 69 2 73 23 71 12 -2 22 1 22 5 0 14 61 1 81 -17z m367 -8 c13 -21 13
-23 -2 -23 -9 0 -19 7 -22 15 -9 22 -70 20 -79 -2 -23 -54 -9 -89 39 -95 20
-2 33 -2 31 0 -2 3 2 11 10 19 24 23 36 5 14 -21 -20 -23 -43 -27 -68 -11 -10
5 -12 4 -7 -3 12 -19 -6 -14 -31 10 -16 15 -23 33 -23 60 0 21 5 38 10 38 6 0
9 3 8 8 -2 4 3 14 11 23 21 22 89 11 109 -18z m162 12 c0 5 5 4 11 -2 5 -5 12
-31 14 -57 2 -35 0 -46 -12 -46 -8 0 -12 -4 -8 -9 17 -28 -76 -36 -105 -9 -26
25 -28 98 -2 121 24 21 64 26 85 8 9 -8 17 -10 17 -6z m543 -3 c12 -11 17 -30
17 -66 0 -51 -18 -104 -21 -61 -1 11 -2 29 -3 40 0 11 2 30 6 43 5 14 4 21 -2
17 -5 -3 -14 3 -19 13 -12 22 -59 19 -68 -4 -3 -8 -8 -12 -12 -10 -3 2 -6 -13
-6 -35 0 -21 4 -39 9 -39 5 0 3 -6 -3 -13 -6 -8 -8 -17 -4 -20 3 -4 1 -7 -5
-7 -13 0 -14 2 -14 80 0 78 0 80 18 80 9 0 12 -5 8 -12 -6 -10 -5 -10 7 -2 31
25 59 24 92 -4z m-223 -49 c0 -18 7 -45 16 -59 21 -31 15 -38 -14 -16 -16 12
-23 29 -25 59 -1 23 -4 41 -7 41 -19 -1 -30 3 -26 11 3 4 17 6 31 3 21 -4 25
-10 25 -39z m-830 -79 c0 -8 -6 -11 -15 -8 -8 4 -15 9 -15 13 0 4 7 8 15 8 8
0 15 -6 15 -13z m291 -186 c1 -7 1 -16 0 -20 0 -5 8 -8 19 -8 13 0 18 -5 14
-15 -4 -8 -10 -12 -15 -9 -10 6 -10 5 -14 -51 -2 -28 2 -44 15 -55 10 -9 15
-21 11 -28 -11 -18 -46 28 -47 63 -1 17 -2 40 -3 53 0 13 -5 21 -10 17 -19
-11 -19 12 0 28 11 10 17 22 14 27 -3 6 -1 10 4 10 6 0 12 -6 12 -12z m359 -8
c0 -11 7 -20 15 -20 8 0 15 -7 15 -16 0 -8 -4 -13 -9 -10 -23 15 -29 -78 -6
-100 17 -18 20 -34 5 -34 -5 0 -10 5 -10 10 0 6 -7 10 -15 10 -11 0 -15 13
-15 54 0 39 -4 55 -15 60 -21 8 -19 26 4 26 14 0 18 5 14 20 -3 11 0 20 6 20
6 0 11 -9 11 -20z m-178 3 c-6 -2 -10 -9 -6 -14 3 -5 0 -9 -5 -9 -6 0 -11 7
-11 15 0 8 8 15 18 14 10 0 12 -3 4 -6z m353 -12 c-3 -6 -11 -8 -17 -5 -6 4
-5 9 3 15 16 10 23 4 14 -10z m-875 -3 c0 -4 6 -7 13 -5 6 1 11 -4 10 -10 -2
-7 3 -13 11 -13 20 0 15 -55 -7 -77 -20 -20 -69 -26 -79 -9 -11 15 -27 -11
-21 -33 3 -11 -1 -18 -9 -18 -16 0 -18 48 -3 59 7 5 6 8 0 8 -6 0 -11 11 -11
25 0 14 4 25 9 25 4 0 5 6 0 13 -16 26 -12 39 12 33 13 -3 26 -3 29 2 6 10 46
10 46 0z m-510 -25 c20 -18 27 -43 12 -43 -5 0 -17 9 -27 20 -28 31 -92 7 -82
-31 3 -10 1 -19 -5 -21 -5 -2 0 -14 11 -26 21 -25 56 -27 79 -4 7 6 21 12 30
12 13 0 11 -6 -10 -25 -36 -33 -71 -38 -99 -14 -12 10 -25 19 -28 19 -13 0 2
93 18 110 21 24 75 25 101 3z m170 2 c0 -8 5 -14 12 -12 18 3 19 -83 1 -113
-12 -22 -21 -25 -51 -22 -21 2 -44 11 -53 19 -20 17 -29 56 -17 76 5 10 4 18
-2 22 -19 11 32 42 72 43 28 1 38 -2 38 -13z m110 3 c0 14 60 13 75 -2 8 -7
11 -16 8 -20 -4 -3 -2 -6 4 -6 6 0 11 -25 11 -60 0 -40 -4 -60 -13 -60 -7 0
-12 18 -12 49 -1 69 -11 95 -29 80 -10 -8 -11 -15 -4 -24 5 -6 7 -14 4 -17 -3
-3 -5 -24 -6 -47 0 -25 -5 -41 -13 -41 -8 0 -11 17 -10 54 2 58 -4 79 -21 68
-16 -10 -27 -62 -13 -62 8 0 8 -4 -1 -15 -8 -10 -9 -15 -2 -15 6 0 9 -7 5 -15
-13 -35 -28 -6 -28 56 -1 83 2 91 26 78 10 -5 19 -6 19 -1z m420 2 c-12 -8
-11 -10 6 -10 24 0 39 -36 24 -55 -5 -6 -31 -11 -57 -10 -34 1 -50 -3 -54 -14
-8 -22 15 -42 43 -37 13 2 29 -2 37 -8 11 -8 13 -8 8 1 -4 6 -2 15 4 18 17 11
23 -3 9 -20 -18 -21 -91 -20 -110 3 -15 17 -24 116 -10 107 3 -2 13 5 20 16
10 13 26 19 55 19 29 0 36 -3 25 -10z m912 -12 c20 -20 26 -108 7 -108 -5 0
-7 -4 -4 -10 6 -9 -12 -15 -65 -22 -38 -5 -65 29 -65 82 0 37 5 48 25 62 31
22 78 20 102 -4z m81 10 c3 -10 7 -10 20 0 21 18 58 12 80 -12 23 -26 25 -136
2 -136 -13 0 -14 4 -4 21 6 13 7 19 1 15 -7 -4 -9 9 -8 36 3 46 -8 64 -39 63
-47 -2 -60 -20 -59 -79 1 -31 -2 -56 -7 -56 -5 0 -9 3 -10 8 -3 31 -4 138 -1
145 5 11 20 8 25 -5z m-662 -32 c1 -6 2 -22 3 -36 0 -14 5 -32 11 -40 12 -19
15 -40 6 -40 -16 0 -41 42 -41 69 0 16 -6 31 -15 35 -8 3 -15 9 -15 14 0 12
50 10 51 -2z m357 -27 c-1 -23 5 -44 15 -54 18 -18 22 -35 9 -35 -19 0 -48 46
-46 73 2 17 -2 27 -10 27 -7 0 -13 6 -13 13 0 7 11 13 24 13 20 0 23 -5 21
-37z m-1752 -414 c8 -33 -7 -50 -46 -53 -24 -2 -32 3 -39 20 -11 31 -3 54 22
66 29 12 55 -1 63 -33z m574 -26 c0 -6 -4 -7 -10 -4 -5 3 -10 11 -10 16 0 6 5
7 10 4 6 -3 10 -11 10 -16z m30 1 c0 -5 -2 -10 -4 -10 -3 0 -8 5 -11 10 -3 6
-1 10 4 10 6 0 11 -4 11 -10z m60 -2 c0 -4 -11 -7 -25 -6 -14 1 -25 6 -25 10
0 4 11 7 25 6 14 -1 25 -6 25 -10z m147 -3 c35 0 63 -4 63 -8 0 -4 -35 -6 -77
-3 -43 2 -88 5 -100 5 -13 1 -23 5 -23 10 0 4 17 6 38 2 20 -3 65 -6 99 -6z
m183 -18 c0 -10 -99 -6 -106 4 -2 4 21 7 51 6 30 -1 55 -5 55 -10z m110 -6 c0
-8 -89 -5 -98 4 -3 3 18 5 46 5 29 0 52 -4 52 -9z m114 -5 c30 0 57 -4 61 -8
4 -4 -26 -5 -66 -2 -100 6 -99 6 -99 16 0 5 11 6 25 2 13 -3 49 -7 79 -8z
m116 -16 c0 -5 -9 -6 -20 -3 -11 3 -20 9 -20 13 0 5 9 6 20 3 11 -3 20 -9 20
-13z m-700 -9 c0 -4 -9 -7 -20 -7 -11 0 -20 6 -20 12 0 7 8 10 20 7 11 -3 20
-8 20 -12z m828 4 c3 -2 -20 -3 -51 -2 -31 2 -59 6 -63 10 -4 4 19 5 51 2 32
-2 60 -7 63 -10z m-680 -4 c12 -1 22 -5 22 -9 0 -5 -23 -5 -52 -2 -28 4 -62 6
-75 4 -12 -1 -25 2 -28 6 -3 5 20 8 52 6 32 -2 68 -4 81 -5z m792 -3 c0 -4
-22 -6 -50 -5 -27 1 -50 5 -50 10 0 4 22 6 50 5 27 -2 50 -6 50 -10z m116 -3
c33 -3 78 -6 102 -6 23 -1 42 -5 42 -9 0 -6 -103 -5 -120 1 -6 2 -47 5 -100 8
-29 2 -31 4 -15 10 11 5 23 7 26 5 4 -2 33 -6 65 -9z m-649 -9 c40 0 73 -4 73
-7 0 -3 17 -6 38 -6 89 0 118 -4 97 -12 -11 -5 -23 -7 -27 -4 -11 6 -288 24
-370 24 -21 0 -38 4 -38 9 0 4 35 6 78 3 42 -3 110 -6 149 -7z m849 -9 c4 -4
-5 -7 -19 -7 -15 0 -27 4 -27 8 0 10 36 9 46 -1z m-529 -21 c4 -4 -14 -6 -40
-5 -26 2 -47 6 -47 10 0 10 77 5 87 -5z m116 -1 c9 2 17 0 17 -4 0 -4 -27 -7
-60 -7 -33 1 -60 4 -60 8 0 10 52 15 70 7 8 -3 23 -5 33 -4z m995 -3 c18 -12
24 -52 9 -66 -17 -17 -47 -27 -47 -16 0 5 -6 7 -14 4 -14 -5 -28 39 -19 62 7
20 50 29 71 16z m-918 -11 c0 -4 -11 -6 -25 -3 -14 2 -25 6 -25 8 0 2 11 4 25
4 14 0 25 -4 25 -9z"/>
<path d="M1182 2513 c-1 -7 -7 -13 -12 -13 -6 0 -29 -12 -53 -27 -23 -15 -45
-26 -49 -25 -5 1 -8 -3 -8 -9 0 -5 -4 -8 -9 -5 -5 3 -12 -1 -15 -10 -3 -8 -10
-12 -16 -9 -5 3 -10 1 -10 -4 0 -6 -4 -11 -10 -11 -5 0 -43 -21 -83 -47 -71
-46 -73 -49 -72 -86 1 -21 -2 -40 -7 -43 -5 -3 -5 -11 -1 -17 4 -7 8 -41 8
-77 0 -63 1 -65 27 -68 20 -2 28 -10 30 -28 2 -14 6 -25 10 -25 4 0 21 -4 37
-9 16 -4 32 -5 36 -2 11 11 95 9 95 -2 0 -6 5 -5 11 1 6 6 18 9 25 6 12 -4 19
18 16 48 -1 4 10 7 24 7 14 0 27 2 30 4 2 3 3 108 1 234 -1 126 -3 223 -5 217z"/>
<path d="M1451 1473 c-6 -7 -9 -23 -6 -36 5 -19 12 -23 33 -21 15 1 29 3 32 4
3 1 7 2 10 2 11 -1 9 42 -2 55 -13 16 -50 13 -67 -4z"/>
<path d="M1305 1530 c-3 -5 -12 -7 -20 -3 -8 3 -15 0 -15 -6 0 -6 -1 -14 -2
-18 -3 -9 60 -15 81 -7 10 3 8 9 -9 24 -27 23 -27 23 -35 10z"/>
<path d="M2170 1520 c0 -6 -6 -8 -12 -4 -7 4 -10 4 -6 -1 4 -4 3 -14 -3 -21
-6 -8 -7 -14 0 -18 6 -4 8 -13 5 -20 -6 -16 21 -39 47 -41 10 -1 26 7 36 17 9
10 13 18 8 18 -4 0 -3 6 3 13 19 23 -8 62 -46 65 -19 2 -32 -1 -32 -8z"/>
<path d="M1646 1165 c-20 -31 -20 -38 2 -57 11 -11 24 -13 38 -8 28 11 36 45
15 63 -31 26 -39 27 -55 2z"/>
<path d="M1277 1156 c4 -5 -1 -7 -11 -3 -13 5 -15 3 -8 -9 5 -9 6 -31 2 -50
-6 -27 -5 -31 8 -27 10 4 13 2 8 -6 -6 -9 3 -11 33 -10 22 2 38 6 35 11 -3 4
-1 8 4 8 16 0 8 79 -8 86 -24 11 -69 11 -63 0z"/>
<path d="M1835 1162 c-21 -4 -37 -21 -30 -32 6 -10 78 -5 82 5 5 15 -29 32
-52 27z"/>
<path d="M2707 1158 c2 -5 -1 -8 -6 -8 -6 0 -11 -17 -11 -39 0 -41 20 -67 44
-58 7 3 19 0 26 -6 10 -9 11 -9 6 1 -4 7 -1 14 6 17 8 3 15 23 16 45 2 31 -1
40 -13 40 -9 0 -14 3 -12 8 3 4 -10 7 -28 7 -18 0 -31 -3 -28 -7z"/>
<path d="M706 2575 c-9 -14 -13 -25 -10 -25 4 0 0 -8 -9 -17 -8 -10 -16 -21
-16 -26 -1 -4 -7 -22 -14 -40 -25 -58 -66 -181 -71 -210 l-5 -27 32 17 c18 10
34 20 37 23 3 3 23 17 45 31 l40 26 -1 132 c0 72 -3 133 -6 136 -3 3 -13 -6
-22 -20z"/>
</g>
</svg>
